<svg width="90" height="90" viewBox="0 0 90 90" fill="none" xmlns="http://www.w3.org/2000/svg">
  <path d="M90 45C90 69.8514 69.8514 90 45 90C20.1486 90 0 69.8514 0 45C0 20.1486 20.1486 0 45 0C69.8566 0 90 20.1486 90 45Z" fill="#2081E2"/>
  <path d="M22.2011 46.512L22.3953 46.2069L34.1016 27.8939C34.2726 27.6257 34.6749 27.6535 34.8043 27.9447C36.76 32.3277 38.4475 37.7786 37.6569 41.1721C37.3194 42.5683 36.3948 44.4593 35.3545 46.2069C35.2204 46.4612 35.0725 46.7109 34.9153 46.9513C34.8413 47.0623 34.7165 47.127 34.5824 47.127H22.5432C22.219 47.127 22.0295 46.7756 22.2011 46.512Z" fill="white"/>
  <path d="M74.3802 49.0654C74.3802 49.3382 74.2185 49.5739 73.9745 49.6757C72.4793 50.3104 67.4242 52.6053 65.3215 55.5283C59.9612 62.9853 55.8714 73.6334 46.7341 73.6334H21.4051C7.95147 73.6334 0 62.0937 0 50.8772C0 50.5117 0.296661 50.2151 0.66214 50.2151H14.2392C14.6694 50.2151 14.9846 50.6064 14.9476 51.0319C14.7951 52.4513 15.0577 53.9012 15.7244 55.2161C17.0091 57.7892 19.6377 59.3952 22.5004 59.3952H29.2042V54.1559H22.5743C22.2366 54.1559 22.0341 53.7674 22.2366 53.4912C22.3107 53.3801 22.39 53.2643 22.4756 53.1346C23.0926 52.2547 23.9748 50.8865 24.8524 49.3334C25.4509 48.2791 26.0309 47.1556 26.4982 46.0264C26.5923 45.8245 26.6672 45.6178 26.7421 45.4159C26.8666 45.0672 26.9958 44.7416 27.0867 44.4161C27.1776 44.1387 27.2532 43.8467 27.3287 43.5739C27.5494 42.621 27.6435 41.6116 27.6435 40.5631C27.6435 40.1515 27.625 39.7203 27.5875 39.3086C27.5685 38.8587 27.512 38.4088 27.4555 37.9589C27.4173 37.5566 27.3478 37.1589 27.2747 36.7434C27.1822 36.137 27.053 35.5352 26.9047 34.9288L26.8533 34.7027C26.7421 34.3012 26.6505 34.1188 26.5219 33.7173C26.1591 32.461 25.7435 31.2354 25.3043 30.0863C25.1437 29.6314 24.9596 29.1955 24.7751 28.7596C24.5037 28.1005 24.2276 27.5031 23.9748 26.9351C23.8429 26.6766 23.7303 26.4421 23.6177 26.1986C23.4906 25.9211 23.3587 25.6437 23.2268 25.3805C23.1333 25.1928 23.0254 25.0052 22.9498 24.8316L22.1409 23.3393C22.0277 23.1374 22.2125 22.8972 22.4329 22.9594L27.553 24.3473H27.5672C27.5767 24.3473 27.5815 24.352 27.5862 24.352L28.2618 24.5396L29.0042 24.7508L29.2757 24.8273V21.7842C29.2757 20.3147 30.4505 19.1267 31.9012 19.1267C32.6266 19.1267 33.2854 19.4232 33.7573 19.9056C34.2297 20.3879 34.5251 21.0476 34.5251 21.7842V26.2935L35.0721 26.4475C35.1152 26.4618 35.1584 26.481 35.1967 26.5098C35.3286 26.6105 35.5171 26.7551 35.756 26.9333C35.9456 27.0825 36.1495 27.2654 36.3964 27.4531C36.8857 27.8522 37.4711 28.3648 38.1156 28.9521C38.2867 29.1014 38.4523 29.2555 38.6035 29.4096C39.4292 30.1801 40.3543 31.0852 41.2375 32.085C41.4853 32.3675 41.728 32.6549 41.9758 32.9567C42.2236 33.2633 42.4857 33.5651 42.7144 33.8669C43.0146 34.2696 43.3387 34.6864 43.6151 35.1224C43.7471 35.3236 43.8981 35.5304 44.0204 35.7316C44.3639 36.2632 44.6688 36.8124 44.9594 37.3617C45.0818 37.6105 45.209 37.8836 45.3171 38.1517C45.6334 38.8451 45.8812 39.5529 46.0386 40.2608C46.0866 40.4148 46.1199 40.5784 46.139 40.7276V40.7612C46.1917 40.9728 46.2108 41.1986 46.23 41.4291C46.3008 42.166 46.2673 42.9029 46.1151 43.6446C46.0531 43.9588 45.9718 44.2569 45.8708 44.5711C45.7649 44.8709 45.659 45.1853 45.5196 45.4803C45.2479 46.1059 44.9264 46.7315 44.5482 47.3139C44.4259 47.5302 44.2796 47.7549 44.1335 47.9796C43.973 48.214 43.8071 48.4362 43.6611 48.6523C43.4584 48.9301 43.2412 49.2235 43.0192 49.4914C42.8197 49.7642 42.6155 50.0369 42.3917 50.2807C42.0803 50.6546 41.7833 51.0106 41.4719 51.3505C41.2918 51.5618 41.0975 51.7803 40.8985 51.9819C40.7042 52.2068 40.5051 52.4093 40.3251 52.5969C40.013 52.9081 39.7516 53.1521 39.5333 53.3534L39.0202 53.8261C38.9494 53.8883 38.8546 53.9234 38.7564 53.9234H35.0721V54.1559H39.6618C40.546 54.1559 41.4248 54.1131 42.3018 54.0231C42.532 53.9997 42.7474 54.1761 42.7474 54.4082C42.7474 54.6005 42.6097 54.7654 42.4174 54.7886C40.984 54.9621 39.5306 55.0339 38.0773 55.0339H38.0631V59.3952H44.7669C46.3735 59.3952 48.0237 58.8113 49.2693 57.6852C49.531 57.4452 50.6722 56.4159 52.0244 54.8636C52.0699 54.8104 52.1286 54.7724 52.1938 54.7542L73.5345 48.6627C73.9716 48.5375 74.3802 48.8625 74.3802 49.3171V49.0654Z" fill="white"/>
</svg>
